# xmcd
#
# Track frame offsets:
#	150
#	12567
#	26082
#	39710
#	54170
#	72432
#	86762
#	102177
#	119275
#	129405
#	141385
#	156562
#	171570
#	187707
#	250125
#
# Disc length: 4270 seconds
#
# Revision: 0
# Processed by: cddbd v1.5.2PL0 Copyright (c) Steve Scherf et al.
# Submitted via: EasyCDDAExtractor 10.0.6.1
#
DISCID=d510ac0f
DTITLE=Various Artist - CDX 13 Agust 1991
DYEAR=1991
DGENRE=Country
TTITLE0=Robin Lee - Back To Being Blue
TTITLE1=Keith Palmer - Don't Throw Me In The Briarpatch
TTITLE2=Dean Dillon - Don't You Even THink About Leaving
TTITLE3=Project HOSS - Let's Open Up Our Hearts
TTITLE4=Vince Gill - Look At Us
TTITLE5=Glen Campbell - Right Down To The Memories
TTITLE6=Tom Kell - Texas Has Nothing On Me
TTITLE7=Highway 101 - The Blame
TTITLE8=Barbara Mandrell - Track 9The Key's In The Mailbox
TTITLE9=Wild Rose - There Goes My Love
TTITLE10=John Anderson - Who Got Our Love
TTITLE11=Billy Dean - You Don't Count The Cost
TTITLE12=Alan Jackson - Liner
TTITLE13=John Anderson - Interview
TTITLE14=Sammy Kershaw - Interview
EXTD=
EXTT0=
EXTT1=
EXTT2=
EXTT3=
EXTT4=
EXTT5=
EXTT6=
EXTT7=
EXTT8=
EXTT9=
EXTT10=
EXTT11=
EXTT12=
EXTT13=
EXTT14=
PLAYORDER=
